# xmcd
#
# Track frame offsets:
#	150
#	12828
#	28769
#	43754
#	64978
#	79413
#	100440
#	123262
#	137543
#	159890
#	180535
#	203070
#	222864
#	242137
#
# Disc length: 3477 seconds
#
# Revision: 1
# Processed by: cddbd v1.5.1PL0 Copyright (c) Steve Scherf et al.
# Submitted via: audiograbber 1.83.01
#
DISCID=be0d930e
DTITLE=Walter Morais - Levando O Sul Nos Rodeios
DYEAR=2005
DGENRE=Gaúcha
TTITLE0=Levando O Sul Nos Arreios
TTITLE1=Campeiro No Mas
TTITLE2=No Estilo De Santiago
TTITLE3=Costeio De Domador
TTITLE4=Décima Do Potro Baio
TTITLE5=Tento A Tento
TTITLE6=Gaúcho Universal
TTITLE7=Brasileiro Gaúcho
TTITLE8=Perfil Do Rio Grande
TTITLE9=Queixo Roxo, Minha Cruza
TTITLE10=Depois Da Tropa Estendida
TTITLE11=O Som Do Sul
TTITLE12=Aos Desgarrados
TTITLE13=A Cantiga Dos Arreios
EXTD=
EXTT0=
EXTT1=
EXTT2=
EXTT3=
EXTT4=
EXTT5=
EXTT6=
EXTT7=
EXTT8=
EXTT9=
EXTT10=
EXTT11=
EXTT12=
EXTT13=
PLAYORDER=
